<svg width="128" height="70" viewBox="0 0 128 70" fill="none" xmlns="http://www.w3.org/2000/svg">
<path d="M123.467 42.2002H127.463L117.599 69.2002H113.621L116.879 60.2002L110.417 42.2002H114.503L118.751 55.0702L123.467 42.2002Z" fill="black"/>
<path d="M108.492 60.2002H104.172L99.7442 52.5682L96.8462 56.0242V60.2002H93.1022V33.2002H96.8462V50.2102L103.542 42.2002H108.438L102.3 49.5262L108.492 60.2002Z" fill="black"/>
<path d="M71.579 60.2002H67.853L61.823 42.2002H65.495L69.743 54.8362L73.955 42.2002H77.735L81.947 54.8362L86.177 42.2002H89.849L83.837 60.2002H80.075L75.827 47.4742L71.579 60.2002Z" fill="black"/>
<path d="M56.2351 42.2003H59.9791V60.2003H56.2171L56.0731 57.5903C55.5451 58.5143 54.8311 59.2583 53.9311 59.8223C53.0311 60.3863 51.9691 60.6683 50.7451 60.6683C49.4251 60.6683 48.1831 60.4223 47.0191 59.9303C45.8551 59.4263 44.8291 58.7303 43.9411 57.8423C43.0651 56.9543 42.3811 55.9343 41.8891 54.7823C41.3971 53.6183 41.1511 52.3703 41.1511 51.0383C41.1511 49.7543 41.3911 48.5483 41.8711 47.4203C42.3511 46.2803 43.0171 45.2843 43.8691 44.4323C44.7211 43.5803 45.7051 42.9143 46.8211 42.4343C47.9491 41.9423 49.1551 41.6963 50.4391 41.6963C51.7471 41.6963 52.8991 41.9963 53.8951 42.5963C54.9031 43.1843 55.7371 43.9403 56.3971 44.8643L56.2351 42.2003ZM50.6551 57.0503C51.7111 57.0503 52.6351 56.7923 53.4271 56.2763C54.2191 55.7483 54.8311 55.0403 55.2631 54.1523C55.7071 53.2643 55.9291 52.2803 55.9291 51.2003C55.9291 50.1083 55.7071 49.1183 55.2631 48.2303C54.8191 47.3423 54.2011 46.6403 53.4091 46.1243C52.6291 45.5963 51.7111 45.3323 50.6551 45.3323C49.6111 45.3323 48.6571 45.5963 47.7931 46.1243C46.9291 46.6523 46.2451 47.3603 45.7411 48.2483C45.2371 49.1363 44.9851 50.1203 44.9851 51.2003C44.9851 52.2923 45.2431 53.2823 45.7591 54.1703C46.2871 55.0463 46.9771 55.7483 47.8291 56.2763C48.6931 56.7923 49.6351 57.0503 50.6551 57.0503Z" fill="black"/>
<path d="M38.9897 48.9142V60.2002H35.2457V49.8322C35.2457 49.0282 35.0477 48.2962 34.6517 47.6362C34.2677 46.9762 33.7457 46.4542 33.0857 46.0702C32.4377 45.6742 31.7057 45.4762 30.8897 45.4762C30.0977 45.4762 29.3717 45.6742 28.7117 46.0702C28.0517 46.4542 27.5237 46.9762 27.1277 47.6362C26.7317 48.2962 26.5337 49.0282 26.5337 49.8322V60.2002H22.7897V33.2002H26.5337V44.1082C27.1577 43.3642 27.9257 42.7762 28.8377 42.3442C29.7497 41.9122 30.7337 41.6962 31.7897 41.6962C33.1217 41.6962 34.3337 42.0202 35.4257 42.6682C36.5177 43.3162 37.3817 44.1862 38.0177 45.2782C38.6657 46.3702 38.9897 47.5822 38.9897 48.9142Z" fill="black"/>
<path d="M9.342 60.6684C7.962 60.6684 6.636 60.4524 5.364 60.0204C4.092 59.5884 2.982 58.9704 2.034 58.1664C1.086 57.3504 0.408 56.3844 0 55.2684L3.50999 53.9544C3.71399 54.5304 4.10399 55.0464 4.67999 55.5024C5.26799 55.9464 5.96399 56.2944 6.76799 56.5464C7.58399 56.7984 8.442 56.9244 9.342 56.9244C10.302 56.9244 11.202 56.7684 12.042 56.4564C12.894 56.1444 13.578 55.7124 14.094 55.1604C14.622 54.6084 14.886 53.9604 14.886 53.2164C14.886 52.4484 14.61 51.8184 14.058 51.3264C13.518 50.8344 12.822 50.4444 11.97 50.1564C11.13 49.8684 10.254 49.6524 9.342 49.5084C7.578 49.2204 5.994 48.8004 4.59 48.2484C3.198 47.6964 2.094 46.9224 1.278 45.9264C0.474 44.9304 0.071991 43.6344 0.071991 42.0384C0.071991 40.5384 0.497991 39.2304 1.34999 38.1144C2.21399 36.9984 3.348 36.1344 4.752 35.5224C6.168 34.8984 7.698 34.5864 9.342 34.5864C10.698 34.5864 12.006 34.8024 13.266 35.2344C14.538 35.6544 15.654 36.2724 16.614 37.0884C17.586 37.8924 18.282 38.8704 18.702 40.0224L15.156 41.3004C14.952 40.7124 14.562 40.2024 13.986 39.7704C13.41 39.3264 12.714 38.9784 11.898 38.7264C11.094 38.4744 10.242 38.3484 9.342 38.3484C8.382 38.3364 7.482 38.4924 6.642 38.8164C5.814 39.1284 5.136 39.5604 4.608 40.1124C4.08 40.6644 3.81599 41.3064 3.81599 42.0384C3.81599 42.9384 4.062 43.6224 4.554 44.0904C5.046 44.5584 5.706 44.9064 6.534 45.1344C7.374 45.3504 8.31 45.5484 9.342 45.7284C10.998 45.9924 12.528 46.4304 13.932 47.0424C15.348 47.6544 16.482 48.4704 17.334 49.4904C18.198 50.4984 18.63 51.7404 18.63 53.2164C18.63 54.7044 18.198 56.0124 17.334 57.1404C16.482 58.2564 15.348 59.1264 13.932 59.7504C12.528 60.3624 10.998 60.6684 9.342 60.6684Z" fill="black"/>
<path d="M94.7813 25.2003V7.20029H98.5253V9.10829C99.1493 8.36429 99.9113 7.77629 100.811 7.34429C101.723 6.91229 102.707 6.69629 103.763 6.69629C105.047 6.69629 106.229 7.00829 107.309 7.63229C108.389 8.24429 109.247 9.06029 109.883 10.0803C110.519 9.06029 111.365 8.24429 112.421 7.63229C113.489 7.00829 114.665 6.69629 115.949 6.69629C117.281 6.69629 118.493 7.02029 119.585 7.66829C120.677 8.31629 121.547 9.18629 122.195 10.2783C122.843 11.3703 123.167 12.5823 123.167 13.9143V25.2003H119.423V14.8683C119.423 14.0763 119.231 13.3503 118.847 12.6903C118.463 12.0303 117.947 11.4963 117.299 11.0883C116.651 10.6803 115.931 10.4763 115.139 10.4763C114.347 10.4763 113.627 10.6683 112.979 11.0523C112.331 11.4363 111.815 11.9583 111.431 12.6183C111.047 13.2783 110.855 14.0283 110.855 14.8683V25.2003H107.111V14.8683C107.111 14.0283 106.919 13.2783 106.535 12.6183C106.151 11.9583 105.629 11.4363 104.969 11.0523C104.321 10.6683 103.601 10.4763 102.809 10.4763C102.029 10.4763 101.309 10.6803 100.649 11.0883C100.001 11.4963 99.4853 12.0303 99.1013 12.6903C98.7173 13.3503 98.5253 14.0763 98.5253 14.8683V25.2003H94.7813Z" fill="black"/>
<path d="M87.4454 7.20029H91.1895V25.2003H87.4275L87.2834 22.5903C86.7554 23.5143 86.0414 24.2583 85.1414 24.8223C84.2414 25.3863 83.1795 25.6683 81.9555 25.6683C80.6355 25.6683 79.3934 25.4223 78.2294 24.9303C77.0654 24.4263 76.0395 23.7303 75.1515 22.8423C74.2755 21.9543 73.5914 20.9343 73.0994 19.7823C72.6074 18.6183 72.3615 17.3703 72.3615 16.0383C72.3615 14.7543 72.6015 13.5483 73.0815 12.4203C73.5615 11.2803 74.2274 10.2843 75.0794 9.43229C75.9314 8.58029 76.9154 7.91429 78.0314 7.43429C79.1594 6.94229 80.3655 6.69629 81.6495 6.69629C82.9575 6.69629 84.1094 6.99629 85.1054 7.59629C86.1134 8.18429 86.9475 8.94029 87.6075 9.86429L87.4454 7.20029ZM81.8654 22.0503C82.9214 22.0503 83.8455 21.7923 84.6375 21.2763C85.4295 20.7483 86.0414 20.0403 86.4734 19.1523C86.9174 18.2643 87.1395 17.2803 87.1395 16.2003C87.1395 15.1083 86.9174 14.1183 86.4734 13.2303C86.0294 12.3423 85.4114 11.6403 84.6194 11.1243C83.8394 10.5963 82.9214 10.3323 81.8654 10.3323C80.8214 10.3323 79.8674 10.5963 79.0034 11.1243C78.1394 11.6523 77.4554 12.3603 76.9514 13.2483C76.4474 14.1363 76.1954 15.1203 76.1954 16.2003C76.1954 17.2923 76.4535 18.2823 76.9695 19.1703C77.4975 20.0463 78.1875 20.7483 79.0395 21.2763C79.9035 21.7923 80.8454 22.0503 81.8654 22.0503Z" fill="black"/>
<path d="M65.7071 7.20002H69.4511V25.2H65.7071V7.20002ZM67.6151 4.59001C67.0391 4.59001 66.5591 4.40401 66.1751 4.03202C65.7911 3.66002 65.5991 3.19202 65.5991 2.62801C65.5991 2.07601 65.7911 1.61401 66.1751 1.24201C66.5591 0.858015 67.0331 0.666016 67.5971 0.666016C68.1491 0.666016 68.6171 0.858015 69.0011 1.24201C69.3851 1.61401 69.5771 2.07601 69.5771 2.62801C69.5771 3.19202 69.3851 3.66002 69.0011 4.03202C68.6291 4.40401 68.1671 4.59001 67.6151 4.59001Z" fill="#F33F3F"/>
<path d="M52.6289 25.2003V7.20029H56.3729V9.10829C56.9969 8.36429 57.7649 7.77629 58.6769 7.34429C59.5889 6.91229 60.5729 6.69629 61.6289 6.69629C62.3009 6.69629 62.9669 6.78629 63.6269 6.96629L62.1329 10.7463C61.6649 10.5663 61.1969 10.4763 60.7289 10.4763C59.9369 10.4763 59.2109 10.6743 58.5509 11.0703C57.8909 11.4543 57.3629 11.9763 56.9669 12.6363C56.5709 13.2963 56.3729 14.0283 56.3729 14.8323V25.2003H52.6289Z" fill="black"/>
<path d="M45.2931 7.20029H49.0371V25.2003H45.2751L45.1311 22.5903C44.6031 23.5143 43.8891 24.2583 42.9891 24.8223C42.0891 25.3863 41.0271 25.6683 39.8031 25.6683C38.4831 25.6683 37.2411 25.4223 36.0771 24.9303C34.9131 24.4263 33.8871 23.7303 32.9991 22.8423C32.1231 21.9543 31.4391 20.9343 30.9471 19.7823C30.4551 18.6183 30.2091 17.3703 30.2091 16.0383C30.2091 14.7543 30.4491 13.5483 30.9291 12.4203C31.4091 11.2803 32.0751 10.2843 32.9271 9.43229C33.7791 8.58029 34.7631 7.91429 35.8791 7.43429C37.0071 6.94229 38.2131 6.69629 39.4971 6.69629C40.8051 6.69629 41.9571 6.99629 42.9531 7.59629C43.9611 8.18429 44.7951 8.94029 45.4551 9.86429L45.2931 7.20029ZM39.7131 22.0503C40.7691 22.0503 41.6931 21.7923 42.4851 21.2763C43.2771 20.7483 43.8891 20.0403 44.3211 19.1523C44.7651 18.2643 44.9871 17.2803 44.9871 16.2003C44.9871 15.1083 44.7651 14.1183 44.3211 13.2303C43.8771 12.3423 43.2591 11.6403 42.4671 11.1243C41.6871 10.5963 40.7691 10.3323 39.7131 10.3323C38.6691 10.3323 37.7151 10.5963 36.8511 11.1243C35.9871 11.6523 35.3031 12.3603 34.7991 13.2483C34.2951 14.1363 34.0431 15.1203 34.0431 16.2003C34.0431 17.2923 34.3011 18.2823 34.8171 19.1703C35.3451 20.0463 36.0351 20.7483 36.8871 21.2763C37.7511 21.7923 38.6931 22.0503 39.7131 22.0503Z" fill="black"/>
<path d="M0 25.2L4.878 0H7.902L14.364 16.974L20.79 0H23.814L28.71 25.2H24.894L21.636 8.334L15.606 24.246H13.086L7.074 8.334L3.816 25.2H0Z" fill="black"/>
</svg>
