<svg width="124" height="61" viewBox="0 0 124 61" fill="none" xmlns="http://www.w3.org/2000/svg">
<path d="M114.855 42.2H118.599V60.2H114.855V42.2ZM116.763 39.59C116.187 39.59 115.707 39.404 115.323 39.032C114.939 38.66 114.747 38.192 114.747 37.628C114.747 37.076 114.939 36.614 115.323 36.242C115.707 35.858 116.181 35.666 116.745 35.666C117.297 35.666 117.765 35.858 118.149 36.242C118.533 36.614 118.725 37.076 118.725 37.628C118.725 38.192 118.533 38.66 118.149 39.032C117.777 39.404 117.315 39.59 116.763 39.59Z" fill="#F33F3F"/>
<path d="M111.999 60.2002H107.679L103.251 52.5682L100.353 56.0242V60.2002H96.6094V33.2002H100.353V50.2102L107.049 42.2002H111.945L105.807 49.5262L111.999 60.2002Z" fill="black"/>
<path d="M75.0862 60.2002H71.3602L65.3302 42.2002H69.0022L73.2502 54.8362L77.4622 42.2002H81.2422L85.4542 54.8362L89.6842 42.2002H93.3562L87.3442 60.2002H83.5822L79.3342 47.4742L75.0862 60.2002Z" fill="black"/>
<path d="M59.7423 42.2003H63.4863V60.2003H59.7243L59.5803 57.5903C59.0523 58.5143 58.3383 59.2583 57.4383 59.8223C56.5383 60.3863 55.4763 60.6683 54.2523 60.6683C52.9323 60.6683 51.6903 60.4223 50.5263 59.9303C49.3623 59.4263 48.3363 58.7303 47.4483 57.8423C46.5723 56.9543 45.8883 55.9343 45.3963 54.7823C44.9043 53.6183 44.6583 52.3703 44.6583 51.0383C44.6583 49.7543 44.8983 48.5483 45.3783 47.4203C45.8583 46.2803 46.5243 45.2843 47.3763 44.4323C48.2283 43.5803 49.2123 42.9143 50.3283 42.4343C51.4563 41.9423 52.6623 41.6963 53.9463 41.6963C55.2543 41.6963 56.4063 41.9963 57.4023 42.5963C58.4103 43.1843 59.2443 43.9403 59.9043 44.8643L59.7423 42.2003ZM54.1623 57.0503C55.2183 57.0503 56.1423 56.7923 56.9343 56.2763C57.7263 55.7483 58.3383 55.0403 58.7703 54.1523C59.2143 53.2643 59.4363 52.2803 59.4363 51.2003C59.4363 50.1083 59.2143 49.1183 58.7703 48.2303C58.3263 47.3423 57.7083 46.6403 56.9163 46.1243C56.1363 45.5963 55.2183 45.3323 54.1623 45.3323C53.1183 45.3323 52.1643 45.5963 51.3003 46.1243C50.4363 46.6523 49.7523 47.3603 49.2483 48.2483C48.7443 49.1363 48.4923 50.1203 48.4923 51.2003C48.4923 52.2923 48.7503 53.2823 49.2663 54.1703C49.7943 55.0463 50.4843 55.7483 51.3363 56.2763C52.2003 56.7923 53.1423 57.0503 54.1623 57.0503Z" fill="black"/>
<path d="M42.4969 48.9142V60.2002H38.7529V49.8322C38.7529 49.0282 38.5549 48.2962 38.1589 47.6362C37.7749 46.9762 37.2529 46.4542 36.5929 46.0702C35.9449 45.6742 35.2129 45.4762 34.3969 45.4762C33.6049 45.4762 32.8789 45.6742 32.2189 46.0702C31.5589 46.4542 31.0309 46.9762 30.6349 47.6362C30.2389 48.2962 30.0409 49.0282 30.0409 49.8322V60.2002H26.2969V33.2002H30.0409V44.1082C30.6649 43.3642 31.4329 42.7762 32.3449 42.3442C33.2569 41.9122 34.2409 41.6962 35.2969 41.6962C36.6289 41.6962 37.8409 42.0202 38.9329 42.6682C40.0249 43.3162 40.8889 44.1862 41.5249 45.2782C42.1729 46.3702 42.4969 47.5822 42.4969 48.9142Z" fill="black"/>
<path d="M12.8492 60.6684C11.4692 60.6684 10.1432 60.4524 8.8712 60.0204C7.5992 59.5884 6.4892 58.9704 5.5412 58.1664C4.5932 57.3504 3.9152 56.3844 3.5072 55.2684L7.0172 53.9544C7.2212 54.5304 7.6112 55.0464 8.1872 55.5024C8.7752 55.9464 9.4712 56.2944 10.2752 56.5464C11.0912 56.7984 11.9492 56.9244 12.8492 56.9244C13.8092 56.9244 14.7092 56.7684 15.5492 56.4564C16.4012 56.1444 17.0852 55.7124 17.6012 55.1604C18.1292 54.6084 18.3932 53.9604 18.3932 53.2164C18.3932 52.4484 18.1172 51.8184 17.5652 51.3264C17.0252 50.8344 16.3292 50.4444 15.4772 50.1564C14.6372 49.8684 13.7612 49.6524 12.8492 49.5084C11.0852 49.2204 9.5012 48.8004 8.0972 48.2484C6.7052 47.6964 5.6012 46.9224 4.7852 45.9264C3.9812 44.9304 3.5792 43.6344 3.5792 42.0384C3.5792 40.5384 4.0052 39.2304 4.8572 38.1144C5.7212 36.9984 6.8552 36.1344 8.2592 35.5224C9.6752 34.8984 11.2052 34.5864 12.8492 34.5864C14.2052 34.5864 15.5132 34.8024 16.7732 35.2344C18.0452 35.6544 19.1612 36.2724 20.1212 37.0884C21.0932 37.8924 21.7892 38.8704 22.2092 40.0224L18.6632 41.3004C18.4592 40.7124 18.0692 40.2024 17.4932 39.7704C16.9172 39.3264 16.2212 38.9784 15.4052 38.7264C14.6012 38.4744 13.7492 38.3484 12.8492 38.3484C11.8892 38.3364 10.9892 38.4924 10.1492 38.8164C9.3212 39.1284 8.6432 39.5604 8.1152 40.1124C7.5872 40.6644 7.3232 41.3064 7.3232 42.0384C7.3232 42.9384 7.5692 43.6224 8.0612 44.0904C8.5532 44.5584 9.2132 44.9064 10.0412 45.1344C10.8812 45.3504 11.8172 45.5484 12.8492 45.7284C14.5052 45.9924 16.0352 46.4304 17.4392 47.0424C18.8552 47.6544 19.9892 48.4704 20.8412 49.4904C21.7052 50.4984 22.1372 51.7404 22.1372 53.2164C22.1372 54.7044 21.7052 56.0124 20.8412 57.1404C19.9892 58.2564 18.8552 59.1264 17.4392 59.7504C16.0352 60.3624 14.5052 60.6684 12.8492 60.6684Z" fill="black"/>
<path d="M94.7812 25.2003V7.20029H98.5252V9.10829C99.1492 8.36429 99.9112 7.77629 100.811 7.34429C101.723 6.91229 102.707 6.69629 103.763 6.69629C105.047 6.69629 106.229 7.00829 107.309 7.63229C108.389 8.24429 109.247 9.06029 109.883 10.0803C110.519 9.06029 111.365 8.24429 112.421 7.63229C113.489 7.00829 114.665 6.69629 115.949 6.69629C117.281 6.69629 118.493 7.02029 119.585 7.66829C120.677 8.31629 121.547 9.18629 122.195 10.2783C122.843 11.3703 123.167 12.5823 123.167 13.9143V25.2003H119.423V14.8683C119.423 14.0763 119.231 13.3503 118.847 12.6903C118.463 12.0303 117.947 11.4963 117.299 11.0883C116.651 10.6803 115.931 10.4763 115.139 10.4763C114.347 10.4763 113.627 10.6683 112.979 11.0523C112.331 11.4363 111.815 11.9583 111.431 12.6183C111.047 13.2783 110.855 14.0283 110.855 14.8683V25.2003H107.111V14.8683C107.111 14.0283 106.919 13.2783 106.535 12.6183C106.151 11.9583 105.629 11.4363 104.969 11.0523C104.321 10.6683 103.601 10.4763 102.809 10.4763C102.029 10.4763 101.309 10.6803 100.649 11.0883C100.001 11.4963 99.4852 12.0303 99.1012 12.6903C98.7172 13.3503 98.5252 14.0763 98.5252 14.8683V25.2003H94.7812Z" fill="black"/>
<path d="M87.4454 7.20029H91.1895V25.2003H87.4275L87.2834 22.5903C86.7554 23.5143 86.0414 24.2583 85.1414 24.8223C84.2414 25.3863 83.1795 25.6683 81.9555 25.6683C80.6355 25.6683 79.3934 25.4223 78.2294 24.9303C77.0654 24.4263 76.0395 23.7303 75.1515 22.8423C74.2755 21.9543 73.5914 20.9343 73.0994 19.7823C72.6074 18.6183 72.3615 17.3703 72.3615 16.0383C72.3615 14.7543 72.6015 13.5483 73.0815 12.4203C73.5615 11.2803 74.2274 10.2843 75.0794 9.43229C75.9314 8.58029 76.9154 7.91429 78.0314 7.43429C79.1594 6.94229 80.3655 6.69629 81.6495 6.69629C82.9575 6.69629 84.1094 6.99629 85.1054 7.59629C86.1134 8.18429 86.9475 8.94029 87.6075 9.86429L87.4454 7.20029ZM81.8654 22.0503C82.9214 22.0503 83.8455 21.7923 84.6375 21.2763C85.4295 20.7483 86.0414 20.0403 86.4734 19.1523C86.9174 18.2643 87.1395 17.2803 87.1395 16.2003C87.1395 15.1083 86.9174 14.1183 86.4734 13.2303C86.0294 12.3423 85.4114 11.6403 84.6194 11.1243C83.8394 10.5963 82.9214 10.3323 81.8654 10.3323C80.8214 10.3323 79.8674 10.5963 79.0034 11.1243C78.1394 11.6523 77.4554 12.3603 76.9514 13.2483C76.4474 14.1363 76.1954 15.1203 76.1954 16.2003C76.1954 17.2923 76.4535 18.2823 76.9695 19.1703C77.4975 20.0463 78.1875 20.7483 79.0395 21.2763C79.9035 21.7923 80.8454 22.0503 81.8654 22.0503Z" fill="black"/>
<path d="M65.707 7.20002H69.451V25.2H65.707V7.20002ZM67.615 4.59001C67.039 4.59001 66.559 4.40401 66.175 4.03202C65.791 3.66002 65.599 3.19202 65.599 2.62801C65.599 2.07601 65.791 1.61401 66.175 1.24201C66.559 0.858015 67.033 0.666016 67.597 0.666016C68.149 0.666016 68.617 0.858015 69.001 1.24201C69.385 1.61401 69.577 2.07601 69.577 2.62801C69.577 3.19202 69.385 3.66002 69.001 4.03202C68.629 4.40401 68.167 4.59001 67.615 4.59001Z" fill="#F33F3F"/>
<path d="M52.6289 25.2003V7.20029H56.3729V9.10829C56.9969 8.36429 57.7649 7.77629 58.6769 7.34429C59.5889 6.91229 60.5729 6.69629 61.6289 6.69629C62.3009 6.69629 62.9669 6.78629 63.6269 6.96629L62.1329 10.7463C61.6649 10.5663 61.1969 10.4763 60.7289 10.4763C59.9369 10.4763 59.2109 10.6743 58.5509 11.0703C57.8909 11.4543 57.3629 11.9763 56.9669 12.6363C56.5709 13.2963 56.3729 14.0283 56.3729 14.8323V25.2003H52.6289Z" fill="black"/>
<path d="M45.2931 7.20029H49.0371V25.2003H45.2751L45.1311 22.5903C44.6031 23.5143 43.8891 24.2583 42.9891 24.8223C42.0891 25.3863 41.0271 25.6683 39.8031 25.6683C38.4831 25.6683 37.2411 25.4223 36.0771 24.9303C34.9131 24.4263 33.8871 23.7303 32.9991 22.8423C32.1231 21.9543 31.4391 20.9343 30.9471 19.7823C30.4551 18.6183 30.2091 17.3703 30.2091 16.0383C30.2091 14.7543 30.4491 13.5483 30.9291 12.4203C31.4091 11.2803 32.0751 10.2843 32.9271 9.43229C33.7791 8.58029 34.7631 7.91429 35.8791 7.43429C37.0071 6.94229 38.2131 6.69629 39.4971 6.69629C40.8051 6.69629 41.9571 6.99629 42.9531 7.59629C43.9611 8.18429 44.7951 8.94029 45.4551 9.86429L45.2931 7.20029ZM39.7131 22.0503C40.7691 22.0503 41.6931 21.7923 42.4851 21.2763C43.2771 20.7483 43.8891 20.0403 44.3211 19.1523C44.7651 18.2643 44.9871 17.2803 44.9871 16.2003C44.9871 15.1083 44.7651 14.1183 44.3211 13.2303C43.8771 12.3423 43.2591 11.6403 42.4671 11.1243C41.6871 10.5963 40.7691 10.3323 39.7131 10.3323C38.6691 10.3323 37.7151 10.5963 36.8511 11.1243C35.9871 11.6523 35.3031 12.3603 34.7991 13.2483C34.2951 14.1363 34.0431 15.1203 34.0431 16.2003C34.0431 17.2923 34.3011 18.2823 34.8171 19.1703C35.3451 20.0463 36.0351 20.7483 36.8871 21.2763C37.7511 21.7923 38.6931 22.0503 39.7131 22.0503Z" fill="black"/>
<path d="M0 25.2L4.878 0H7.902L14.364 16.974L20.79 0H23.814L28.71 25.2H24.894L21.636 8.334L15.606 24.246H13.086L7.074 8.334L3.816 25.2H0Z" fill="black"/>
</svg>
