<svg width="251" height="28" viewBox="0 0 251 28" fill="none" xmlns="http://www.w3.org/2000/svg">
<path d="M246.41 8.99982H250.154V26.9998H246.41V8.99982ZM248.318 6.38982C247.742 6.38982 247.262 6.20382 246.878 5.83182C246.494 5.45982 246.302 4.99182 246.302 4.42782C246.302 3.87582 246.494 3.41382 246.878 3.04182C247.262 2.65782 247.736 2.46582 248.3 2.46582C248.852 2.46582 249.32 2.65782 249.704 3.04182C250.088 3.41382 250.28 3.87582 250.28 4.42782C250.28 4.99182 250.088 5.45982 249.704 5.83182C249.332 6.20382 248.87 6.38982 248.318 6.38982Z" fill="#F33F3F"/>
<path d="M243.554 27H239.234L234.806 19.368L231.908 22.824V27H228.164V0H231.908V17.01L238.604 9H243.5L237.362 16.326L243.554 27Z" fill="white"/>
<path d="M206.641 27H202.915L196.885 9H200.557L204.805 21.636L209.017 9H212.797L217.009 21.636L221.239 9H224.911L218.899 27H215.137L210.889 14.274L206.641 27Z" fill="white"/>
<path d="M191.297 9.00009H195.041V27.0001H191.279L191.135 24.3901C190.607 25.3141 189.893 26.0581 188.993 26.6221C188.093 27.1861 187.031 27.4681 185.807 27.4681C184.487 27.4681 183.245 27.2221 182.081 26.7301C180.917 26.2261 179.891 25.5301 179.003 24.6421C178.127 23.7541 177.443 22.7341 176.951 21.5821C176.459 20.4181 176.213 19.1701 176.213 17.8381C176.213 16.5541 176.453 15.3481 176.933 14.2201C177.413 13.0801 178.079 12.0841 178.931 11.2321C179.783 10.3801 180.767 9.71409 181.883 9.23409C183.011 8.74209 184.217 8.49609 185.501 8.49609C186.809 8.49609 187.961 8.79609 188.957 9.39609C189.965 9.98409 190.799 10.7401 191.459 11.6641L191.297 9.00009ZM185.717 23.8501C186.773 23.8501 187.697 23.5921 188.489 23.0761C189.281 22.5481 189.893 21.8401 190.325 20.9521C190.769 20.0641 190.991 19.0801 190.991 18.0001C190.991 16.9081 190.769 15.9181 190.325 15.0301C189.881 14.1421 189.263 13.4401 188.471 12.9241C187.691 12.3961 186.773 12.1321 185.717 12.1321C184.673 12.1321 183.719 12.3961 182.855 12.9241C181.991 13.4521 181.307 14.1601 180.803 15.0481C180.299 15.9361 180.047 16.9201 180.047 18.0001C180.047 19.0921 180.305 20.0821 180.821 20.9701C181.349 21.8461 182.039 22.5481 182.891 23.0761C183.755 23.5921 184.697 23.8501 185.717 23.8501Z" fill="white"/>
<path d="M174.052 15.714V27H170.308V16.632C170.308 15.828 170.11 15.096 169.714 14.436C169.33 13.776 168.808 13.254 168.148 12.87C167.5 12.474 166.768 12.276 165.952 12.276C165.16 12.276 164.434 12.474 163.774 12.87C163.114 13.254 162.586 13.776 162.19 14.436C161.794 15.096 161.596 15.828 161.596 16.632V27H157.852V0H161.596V10.908C162.22 10.164 162.988 9.576 163.9 9.144C164.812 8.712 165.796 8.496 166.852 8.496C168.184 8.496 169.396 8.82 170.488 9.468C171.58 10.116 172.444 10.986 173.08 12.078C173.728 13.17 174.052 14.382 174.052 15.714Z" fill="white"/>
<path d="M144.404 27.4682C143.024 27.4682 141.698 27.2522 140.426 26.8202C139.154 26.3882 138.044 25.7702 137.096 24.9662C136.148 24.1502 135.47 23.1842 135.062 22.0682L138.572 20.7542C138.776 21.3302 139.166 21.8462 139.742 22.3022C140.33 22.7462 141.026 23.0942 141.83 23.3462C142.646 23.5982 143.504 23.7242 144.404 23.7242C145.364 23.7242 146.264 23.5682 147.104 23.2562C147.956 22.9442 148.64 22.5122 149.156 21.9602C149.684 21.4082 149.948 20.7602 149.948 20.0162C149.948 19.2482 149.672 18.6182 149.12 18.1262C148.58 17.6342 147.884 17.2442 147.032 16.9562C146.192 16.6682 145.316 16.4522 144.404 16.3082C142.64 16.0202 141.056 15.6002 139.652 15.0482C138.26 14.4962 137.156 13.7222 136.34 12.7262C135.536 11.7302 135.134 10.4342 135.134 8.83823C135.134 7.33823 135.56 6.03023 136.412 4.91423C137.276 3.79823 138.41 2.93423 139.814 2.32223C141.23 1.69823 142.76 1.38623 144.404 1.38623C145.76 1.38623 147.068 1.60223 148.328 2.03423C149.6 2.45423 150.716 3.07223 151.676 3.88823C152.648 4.69223 153.344 5.67023 153.764 6.82223L150.218 8.10023C150.014 7.51223 149.624 7.00223 149.048 6.57023C148.472 6.12623 147.776 5.77823 146.96 5.52623C146.156 5.27423 145.304 5.14823 144.404 5.14823C143.444 5.13623 142.544 5.29223 141.704 5.61623C140.876 5.92823 140.198 6.36023 139.67 6.91223C139.142 7.46423 138.878 8.10623 138.878 8.83823C138.878 9.73823 139.124 10.4222 139.616 10.8902C140.108 11.3582 140.768 11.7062 141.596 11.9342C142.436 12.1502 143.372 12.3482 144.404 12.5282C146.06 12.7922 147.59 13.2302 148.994 13.8422C150.41 14.4542 151.544 15.2702 152.396 16.2902C153.26 17.2982 153.692 18.5402 153.692 20.0162C153.692 21.5042 153.26 22.8122 152.396 23.9402C151.544 25.0562 150.41 25.9262 148.994 26.5502C147.59 27.1622 146.06 27.4682 144.404 27.4682Z" fill="white"/>
<path d="M94.7812 27.0001V9.00009H98.5252V10.9081C99.1492 10.1641 99.9112 9.57609 100.811 9.14409C101.723 8.71209 102.707 8.49609 103.763 8.49609C105.047 8.49609 106.229 8.80809 107.309 9.43209C108.389 10.0441 109.247 10.8601 109.883 11.8801C110.519 10.8601 111.365 10.0441 112.421 9.43209C113.489 8.80809 114.665 8.49609 115.949 8.49609C117.281 8.49609 118.493 8.82009 119.585 9.46809C120.677 10.1161 121.547 10.9861 122.195 12.0781C122.843 13.1701 123.167 14.3821 123.167 15.7141V27.0001H119.423V16.6681C119.423 15.8761 119.231 15.1501 118.847 14.4901C118.463 13.8301 117.947 13.2961 117.299 12.8881C116.651 12.4801 115.931 12.2761 115.139 12.2761C114.347 12.2761 113.627 12.4681 112.979 12.8521C112.331 13.2361 111.815 13.7581 111.431 14.4181C111.047 15.0781 110.855 15.8281 110.855 16.6681V27.0001H107.111V16.6681C107.111 15.8281 106.919 15.0781 106.535 14.4181C106.151 13.7581 105.629 13.2361 104.969 12.8521C104.321 12.4681 103.601 12.2761 102.809 12.2761C102.029 12.2761 101.309 12.4801 100.649 12.8881C100.001 13.2961 99.4852 13.8301 99.1012 14.4901C98.7172 15.1501 98.5252 15.8761 98.5252 16.6681V27.0001H94.7812Z" fill="white"/>
<path d="M87.4454 9.00009H91.1894V27.0001H87.4274L87.2834 24.3901C86.7554 25.3141 86.0414 26.0581 85.1414 26.6221C84.2414 27.1861 83.1794 27.4681 81.9554 27.4681C80.6354 27.4681 79.3934 27.2221 78.2294 26.7301C77.0654 26.2261 76.0394 25.5301 75.1514 24.6421C74.2754 23.7541 73.5914 22.7341 73.0994 21.5821C72.6074 20.4181 72.3614 19.1701 72.3614 17.8381C72.3614 16.5541 72.6014 15.3481 73.0814 14.2201C73.5614 13.0801 74.2274 12.0841 75.0794 11.2321C75.9314 10.3801 76.9154 9.71409 78.0314 9.23409C79.1594 8.74209 80.3654 8.49609 81.6494 8.49609C82.9574 8.49609 84.1094 8.79609 85.1054 9.39609C86.1134 9.98409 86.9474 10.7401 87.6074 11.6641L87.4454 9.00009ZM81.8654 23.8501C82.9214 23.8501 83.8454 23.5921 84.6374 23.0761C85.4294 22.5481 86.0414 21.8401 86.4734 20.9521C86.9174 20.0641 87.1394 19.0801 87.1394 18.0001C87.1394 16.9081 86.9174 15.9181 86.4734 15.0301C86.0294 14.1421 85.4114 13.4401 84.6194 12.9241C83.8394 12.3961 82.9214 12.1321 81.8654 12.1321C80.8214 12.1321 79.8674 12.3961 79.0034 12.9241C78.1394 13.4521 77.4554 14.1601 76.9514 15.0481C76.4474 15.9361 76.1954 16.9201 76.1954 18.0001C76.1954 19.0921 76.4534 20.0821 76.9694 20.9701C77.4974 21.8461 78.1874 22.5481 79.0394 23.0761C79.9034 23.5921 80.8454 23.8501 81.8654 23.8501Z" fill="white"/>
<path d="M65.707 8.99982H69.451V26.9998H65.707V8.99982ZM67.615 6.38982C67.039 6.38982 66.559 6.20382 66.175 5.83182C65.791 5.45982 65.599 4.99182 65.599 4.42782C65.599 3.87582 65.791 3.41382 66.175 3.04182C66.559 2.65782 67.033 2.46582 67.597 2.46582C68.149 2.46582 68.617 2.65782 69.001 3.04182C69.385 3.41382 69.577 3.87582 69.577 4.42782C69.577 4.99182 69.385 5.45982 69.001 5.83182C68.629 6.20382 68.167 6.38982 67.615 6.38982Z" fill="#F33F3F"/>
<path d="M52.6289 27.0001V9.00009H56.3729V10.9081C56.9969 10.1641 57.7649 9.57609 58.6769 9.14409C59.5889 8.71209 60.5729 8.49609 61.6289 8.49609C62.3009 8.49609 62.9669 8.58609 63.6269 8.76609L62.1329 12.5461C61.6649 12.3661 61.1969 12.2761 60.7289 12.2761C59.9369 12.2761 59.2109 12.4741 58.5509 12.8701C57.8909 13.2541 57.3629 13.7761 56.9669 14.4361C56.5709 15.0961 56.3729 15.8281 56.3729 16.6321V27.0001H52.6289Z" fill="white"/>
<path d="M45.2931 9.00009H49.0371V27.0001H45.2751L45.1311 24.3901C44.6031 25.3141 43.8891 26.0581 42.9891 26.6221C42.0891 27.1861 41.0271 27.4681 39.8031 27.4681C38.4831 27.4681 37.2411 27.2221 36.0771 26.7301C34.9131 26.2261 33.8871 25.5301 32.9991 24.6421C32.1231 23.7541 31.4391 22.7341 30.9471 21.5821C30.4551 20.4181 30.2091 19.1701 30.2091 17.8381C30.2091 16.5541 30.4491 15.3481 30.9291 14.2201C31.4091 13.0801 32.0751 12.0841 32.9271 11.2321C33.7791 10.3801 34.7631 9.71409 35.8791 9.23409C37.0071 8.74209 38.2131 8.49609 39.4971 8.49609C40.8051 8.49609 41.9571 8.79609 42.9531 9.39609C43.9611 9.98409 44.7951 10.7401 45.4551 11.6641L45.2931 9.00009ZM39.7131 23.8501C40.7691 23.8501 41.6931 23.5921 42.4851 23.0761C43.2771 22.5481 43.8891 21.8401 44.3211 20.9521C44.7651 20.0641 44.9871 19.0801 44.9871 18.0001C44.9871 16.9081 44.7651 15.9181 44.3211 15.0301C43.8771 14.1421 43.2591 13.4401 42.4671 12.9241C41.6871 12.3961 40.7691 12.1321 39.7131 12.1321C38.6691 12.1321 37.7151 12.3961 36.8511 12.9241C35.9871 13.4521 35.3031 14.1601 34.7991 15.0481C34.2951 15.9361 34.0431 16.9201 34.0431 18.0001C34.0431 19.0921 34.3011 20.0821 34.8171 20.9701C35.3451 21.8461 36.0351 22.5481 36.8871 23.0761C37.7511 23.5921 38.6931 23.8501 39.7131 23.8501Z" fill="white"/>
<path d="M0 26.9998L4.878 1.7998H7.902L14.364 18.7738L20.79 1.7998H23.814L28.71 26.9998H24.894L21.636 10.1338L15.606 26.0458H13.086L7.074 10.1338L3.816 26.9998H0Z" fill="white"/>
</svg>
