<svg width="124" height="62" viewBox="0 0 124 62" fill="none" xmlns="http://www.w3.org/2000/svg">
<path d="M115.129 42.9998H118.873V60.9998H115.129V42.9998ZM117.037 40.3898C116.461 40.3898 115.981 40.2038 115.597 39.8318C115.213 39.4598 115.021 38.9918 115.021 38.4278C115.021 37.8758 115.213 37.4138 115.597 37.0418C115.981 36.6578 116.455 36.4658 117.019 36.4658C117.571 36.4658 118.039 36.6578 118.423 37.0418C118.807 37.4138 118.999 37.8758 118.999 38.4278C118.999 38.9918 118.807 39.4598 118.423 39.8318C118.051 40.2038 117.589 40.3898 117.037 40.3898Z" fill="#F33F3F"/>
<path d="M112.273 61H107.953L103.525 53.368L100.627 56.824V61H96.8827V34H100.627V51.01L107.323 43H112.219L106.081 50.326L112.273 61Z" fill="white"/>
<path d="M75.3595 61H71.6335L65.6035 43H69.2755L73.5235 55.636L77.7355 43H81.5155L85.7275 55.636L89.9575 43H93.6295L87.6175 61H83.8555L79.6075 48.274L75.3595 61Z" fill="white"/>
<path d="M60.0156 43.0001H63.7596V61.0001H59.9976L59.8536 58.3901C59.3256 59.3141 58.6116 60.0581 57.7116 60.6221C56.8116 61.1861 55.7496 61.4681 54.5256 61.4681C53.2056 61.4681 51.9636 61.2221 50.7996 60.7301C49.6356 60.2261 48.6096 59.5301 47.7216 58.6421C46.8456 57.7541 46.1616 56.7341 45.6696 55.5821C45.1776 54.4181 44.9316 53.1701 44.9316 51.8381C44.9316 50.5541 45.1716 49.3481 45.6516 48.2201C46.1316 47.0801 46.7976 46.0841 47.6496 45.2321C48.5016 44.3801 49.4856 43.7141 50.6016 43.2341C51.7296 42.7421 52.9356 42.4961 54.2196 42.4961C55.5276 42.4961 56.6796 42.7961 57.6756 43.3961C58.6836 43.9841 59.5176 44.7401 60.1776 45.6641L60.0156 43.0001ZM54.4356 57.8501C55.4916 57.8501 56.4156 57.5921 57.2076 57.0761C57.9996 56.5481 58.6116 55.8401 59.0436 54.9521C59.4876 54.0641 59.7096 53.0801 59.7096 52.0001C59.7096 50.9081 59.4876 49.9181 59.0436 49.0301C58.5996 48.1421 57.9816 47.4401 57.1896 46.9241C56.4096 46.3961 55.4916 46.1321 54.4356 46.1321C53.3916 46.1321 52.4376 46.3961 51.5736 46.9241C50.7096 47.4521 50.0256 48.1601 49.5216 49.0481C49.0176 49.9361 48.7656 50.9201 48.7656 52.0001C48.7656 53.0921 49.0236 54.0821 49.5396 54.9701C50.0676 55.8461 50.7576 56.5481 51.6096 57.0761C52.4736 57.5921 53.4156 57.8501 54.4356 57.8501Z" fill="white"/>
<path d="M42.7701 49.714V61H39.0261V50.632C39.0261 49.828 38.8281 49.096 38.4321 48.436C38.0481 47.776 37.5261 47.254 36.8661 46.87C36.2181 46.474 35.4861 46.276 34.6701 46.276C33.8781 46.276 33.1521 46.474 32.4921 46.87C31.8321 47.254 31.3041 47.776 30.9081 48.436C30.5121 49.096 30.3141 49.828 30.3141 50.632V61H26.5701V34H30.3141V44.908C30.9381 44.164 31.7061 43.576 32.6181 43.144C33.5301 42.712 34.5141 42.496 35.5701 42.496C36.9021 42.496 38.1141 42.82 39.2061 43.468C40.2981 44.116 41.1621 44.986 41.7981 46.078C42.4461 47.17 42.7701 48.382 42.7701 49.714Z" fill="white"/>
<path d="M13.1225 61.4682C11.7425 61.4682 10.4165 61.2522 9.14446 60.8202C7.87246 60.3882 6.76246 59.7702 5.81446 58.9662C4.86646 58.1502 4.18846 57.1842 3.78046 56.0682L7.29046 54.7542C7.49446 55.3302 7.88446 55.8462 8.46046 56.3022C9.04846 56.7462 9.74446 57.0942 10.5485 57.3462C11.3645 57.5982 12.2225 57.7242 13.1225 57.7242C14.0825 57.7242 14.9825 57.5682 15.8225 57.2562C16.6745 56.9442 17.3585 56.5122 17.8745 55.9602C18.4025 55.4082 18.6665 54.7602 18.6665 54.0162C18.6665 53.2482 18.3905 52.6182 17.8385 52.1262C17.2985 51.6342 16.6025 51.2442 15.7505 50.9562C14.9105 50.6682 14.0345 50.4522 13.1225 50.3082C11.3585 50.0202 9.77446 49.6002 8.37046 49.0482C6.97846 48.4962 5.87446 47.7222 5.05846 46.7262C4.25446 45.7302 3.85246 44.4342 3.85246 42.8382C3.85246 41.3382 4.27846 40.0302 5.13046 38.9142C5.99446 37.7982 7.12846 36.9342 8.53246 36.3222C9.94846 35.6982 11.4785 35.3862 13.1225 35.3862C14.4785 35.3862 15.7865 35.6022 17.0465 36.0342C18.3185 36.4542 19.4345 37.0722 20.3945 37.8882C21.3665 38.6922 22.0625 39.6702 22.4825 40.8222L18.9365 42.1002C18.7325 41.5122 18.3425 41.0022 17.7665 40.5702C17.1905 40.1262 16.4945 39.7782 15.6785 39.5262C14.8745 39.2742 14.0225 39.1482 13.1225 39.1482C12.1625 39.1362 11.2625 39.2922 10.4225 39.6162C9.59446 39.9282 8.91646 40.3602 8.38846 40.9122C7.86046 41.4642 7.59646 42.1062 7.59646 42.8382C7.59646 43.7382 7.84246 44.4222 8.33446 44.8902C8.82646 45.3582 9.48646 45.7062 10.3145 45.9342C11.1545 46.1502 12.0905 46.3482 13.1225 46.5282C14.7785 46.7922 16.3085 47.2302 17.7125 47.8422C19.1285 48.4542 20.2625 49.2702 21.1145 50.2902C21.9785 51.2982 22.4105 52.5402 22.4105 54.0162C22.4105 55.5042 21.9785 56.8122 21.1145 57.9402C20.2625 59.0562 19.1285 59.9262 17.7125 60.5502C16.3085 61.1622 14.7785 61.4682 13.1225 61.4682Z" fill="white"/>
<path d="M95.0546 26.0001V8.00009H98.7986V9.90809C99.4226 9.16409 100.185 8.57609 101.085 8.14409C101.997 7.71209 102.981 7.49609 104.037 7.49609C105.321 7.49609 106.503 7.80809 107.583 8.43209C108.663 9.04409 109.521 9.86009 110.157 10.8801C110.793 9.86009 111.639 9.04409 112.695 8.43209C113.763 7.80809 114.939 7.49609 116.223 7.49609C117.555 7.49609 118.767 7.82009 119.859 8.46809C120.951 9.11609 121.821 9.98609 122.469 11.0781C123.117 12.1701 123.441 13.3821 123.441 14.7141V26.0001H119.697V15.6681C119.697 14.8761 119.505 14.1501 119.121 13.4901C118.737 12.8301 118.221 12.2961 117.573 11.8881C116.925 11.4801 116.205 11.2761 115.413 11.2761C114.621 11.2761 113.901 11.4681 113.253 11.8521C112.605 12.2361 112.089 12.7581 111.705 13.4181C111.321 14.0781 111.129 14.8281 111.129 15.6681V26.0001H107.385V15.6681C107.385 14.8281 107.193 14.0781 106.809 13.4181C106.425 12.7581 105.903 12.2361 105.243 11.8521C104.595 11.4681 103.875 11.2761 103.083 11.2761C102.303 11.2761 101.583 11.4801 100.923 11.8881C100.275 12.2961 99.7586 12.8301 99.3746 13.4901C98.9906 14.1501 98.7986 14.8761 98.7986 15.6681V26.0001H95.0546Z" fill="white"/>
<path d="M87.7187 8.00009H91.4627V26.0001H87.7007L87.5567 23.3901C87.0287 24.3141 86.3147 25.0581 85.4147 25.6221C84.5147 26.1861 83.4527 26.4681 82.2287 26.4681C80.9087 26.4681 79.6667 26.2221 78.5027 25.7301C77.3387 25.2261 76.3127 24.5301 75.4247 23.6421C74.5487 22.7541 73.8647 21.7341 73.3727 20.5821C72.8807 19.4181 72.6347 18.1701 72.6347 16.8381C72.6347 15.5541 72.8747 14.3481 73.3547 13.2201C73.8347 12.0801 74.5007 11.0841 75.3527 10.2321C76.2047 9.38009 77.1887 8.71409 78.3047 8.23409C79.4327 7.74209 80.6387 7.49609 81.9227 7.49609C83.2307 7.49609 84.3827 7.79609 85.3787 8.39609C86.3867 8.98409 87.2207 9.74009 87.8807 10.6641L87.7187 8.00009ZM82.1387 22.8501C83.1947 22.8501 84.1187 22.5921 84.9107 22.0761C85.7027 21.5481 86.3147 20.8401 86.7467 19.9521C87.1907 19.0641 87.4127 18.0801 87.4127 17.0001C87.4127 15.9081 87.1907 14.9181 86.7467 14.0301C86.3027 13.1421 85.6847 12.4401 84.8927 11.9241C84.1127 11.3961 83.1947 11.1321 82.1387 11.1321C81.0947 11.1321 80.1407 11.3961 79.2767 11.9241C78.4127 12.4521 77.7287 13.1601 77.2247 14.0481C76.7207 14.9361 76.4687 15.9201 76.4687 17.0001C76.4687 18.0921 76.7267 19.0821 77.2427 19.9701C77.7707 20.8461 78.4607 21.5481 79.3127 22.0761C80.1767 22.5921 81.1187 22.8501 82.1387 22.8501Z" fill="white"/>
<path d="M65.9803 7.99982H69.7243V25.9998H65.9803V7.99982ZM67.8883 5.38982C67.3123 5.38982 66.8323 5.20382 66.4483 4.83182C66.0643 4.45982 65.8723 3.99182 65.8723 3.42782C65.8723 2.87582 66.0643 2.41382 66.4483 2.04182C66.8323 1.65782 67.3063 1.46582 67.8703 1.46582C68.4223 1.46582 68.8903 1.65782 69.2743 2.04182C69.6583 2.41382 69.8503 2.87582 69.8503 3.42782C69.8503 3.99182 69.6583 4.45982 69.2743 4.83182C68.9023 5.20382 68.4403 5.38982 67.8883 5.38982Z" fill="#F33F3F"/>
<path d="M52.9022 26.0001V8.00009H56.6462V9.90809C57.2702 9.16409 58.0382 8.57609 58.9502 8.14409C59.8622 7.71209 60.8462 7.49609 61.9022 7.49609C62.5742 7.49609 63.2402 7.58609 63.9002 7.76609L62.4062 11.5461C61.9382 11.3661 61.4702 11.2761 61.0022 11.2761C60.2102 11.2761 59.4842 11.4741 58.8242 11.8701C58.1642 12.2541 57.6362 12.7761 57.2402 13.4361C56.8442 14.0961 56.6462 14.8281 56.6462 15.6321V26.0001H52.9022Z" fill="white"/>
<path d="M45.5664 8.00009H49.3104V26.0001H45.5484L45.4044 23.3901C44.8764 24.3141 44.1624 25.0581 43.2624 25.6221C42.3624 26.1861 41.3004 26.4681 40.0764 26.4681C38.7564 26.4681 37.5144 26.2221 36.3504 25.7301C35.1864 25.2261 34.1604 24.5301 33.2724 23.6421C32.3964 22.7541 31.7124 21.7341 31.2204 20.5821C30.7284 19.4181 30.4824 18.1701 30.4824 16.8381C30.4824 15.5541 30.7224 14.3481 31.2024 13.2201C31.6824 12.0801 32.3484 11.0841 33.2004 10.2321C34.0524 9.38009 35.0364 8.71409 36.1524 8.23409C37.2804 7.74209 38.4864 7.49609 39.7704 7.49609C41.0784 7.49609 42.2304 7.79609 43.2264 8.39609C44.2344 8.98409 45.0684 9.74009 45.7284 10.6641L45.5664 8.00009ZM39.9864 22.8501C41.0424 22.8501 41.9664 22.5921 42.7584 22.0761C43.5504 21.5481 44.1624 20.8401 44.5944 19.9521C45.0384 19.0641 45.2604 18.0801 45.2604 17.0001C45.2604 15.9081 45.0384 14.9181 44.5944 14.0301C44.1504 13.1421 43.5324 12.4401 42.7404 11.9241C41.9604 11.3961 41.0424 11.1321 39.9864 11.1321C38.9424 11.1321 37.9884 11.3961 37.1244 11.9241C36.2604 12.4521 35.5764 13.1601 35.0724 14.0481C34.5684 14.9361 34.3164 15.9201 34.3164 17.0001C34.3164 18.0921 34.5744 19.0821 35.0904 19.9701C35.6184 20.8461 36.3084 21.5481 37.1604 22.0761C38.0244 22.5921 38.9664 22.8501 39.9864 22.8501Z" fill="white"/>
<path d="M0.273285 25.9998L5.15129 0.799805H8.17529L14.6373 17.7738L21.0633 0.799805H24.0873L28.9833 25.9998H25.1673L21.9093 9.13381L15.8793 25.0458H13.3593L7.34729 9.13381L4.08929 25.9998H0.273285Z" fill="white"/>
</svg>
